# This file uses centimeters as units for non-parametric coordinates.

mtllib eraser.mtl
g default
v -0.800271 -0.487814 1.457354
v -0.806104 -0.386894 1.505587
v -0.881855 -0.386671 1.345295
v 0.881855 -0.386671 1.345295
v 0.800271 -0.379123 1.496060
v 0.800271 -0.487814 1.457354
v -0.881855 0.103271 0.772909
v -0.793138 0.144450 0.854164
v -0.793138 0.186540 0.735971
v 0.793138 0.186540 0.735971
v 0.791838 0.143833 0.854920
v 0.881855 0.103271 0.772909
v -0.881855 0.085397 -2.336802
v -0.800271 0.186540 -2.448861
v -0.800271 0.077849 -2.487567
v 0.800271 0.077849 -2.487567
v 0.806104 0.186540 -2.461155
v 0.881855 0.085397 -2.336802
v -0.881855 -0.404545 -1.764416
v -0.793138 -0.445723 -1.845671
v -0.793138 -0.487814 -1.727478
v 0.793138 -0.487814 -1.727478
v 0.791838 -0.445107 -1.846427
v 0.881855 -0.404545 -1.764416
vt 0.386564 0.987442
vt 0.375000 0.979259
vt 0.375000 0.752165
vt 0.386564 0.003780
vt 0.385737 0.037414
vt 0.625000 0.979259
vt 0.613436 0.987442
vt 0.625000 0.752165
vt 0.636686 0.037496
vt 0.375000 0.252165
vt 0.375000 0.479259
vt 0.387575 0.234396
vt 0.612240 0.234167
vt 0.625000 0.252165
vt 0.375000 0.541014
vt 0.375000 0.722026
vt 0.386564 0.487442
vt 0.614263 0.488340
vt 0.625000 0.541014
vt 0.625000 0.722026
vt 0.387575 0.734396
vt 0.612240 0.734167
vt 0.612425 0.754863
vt 0.613436 0.040294
vt 0.387575 0.254863
vt 0.612425 0.254863
vt 0.386564 0.540294
vt 0.613436 0.540294
vt 0.387575 0.754863
vt 0.865379 0.030870
vt 0.863314 0.212504
vt 0.134621 0.030870
vt 0.363314 0.037496
vt 0.365379 0.219130
vt 0.136686 0.212504
vt 0.613436 0.003780
vt 0.634621 0.219130
vt 0.625000 0.479259
vn -0.735096 -0.677963 0.001092
vn -0.735096 -0.677963 0.001092
vn -0.750455 -0.650588 -0.116412
vn -0.734373 -0.678745 -0.000818
vn 0.003672 -0.383028 0.923729
vn 0.003672 -0.383028 0.923729
vn 0.003672 -0.383028 0.923729
vn 0.003672 -0.383028 0.923729
vn -0.746910 0.514385 0.421348
vn -0.746910 0.514385 0.421348
vn -0.732798 0.546712 0.405109
vn -0.752794 0.648439 0.113266
vn 0.735096 -0.677963 0.001092
vn 0.735096 -0.677963 0.001092
vn 0.734345 -0.678776 -0.000925
vn 0.749686 -0.651436 -0.116626
vn 0.733600 0.524224 0.432458
vn 0.733600 0.524224 0.432458
vn 0.757937 0.641513 0.118288
vn 0.720612 0.554534 0.416186
vn -0.734373 0.678745 0.000818
vn -0.735096 0.677963 -0.001092
vn -0.735096 0.677963 -0.001092
vn 0.000004 0.999919 0.012688
vn 0.000013 0.801755 0.597653
vn 0.000014 0.801963 0.597373
vn 0.000004 0.999921 0.012553
vn 0.745637 0.666351 0.001690
vn 0.746464 0.665426 -0.000351
vn 0.746464 0.665426 -0.000351
vn -0.736389 -0.521529 -0.430974
vn -0.736389 -0.521529 -0.430974
vn -0.723493 -0.552641 -0.413698
vn -0.003672 0.287045 -0.957910
vn -0.003672 0.287045 -0.957910
vn -0.003672 0.287045 -0.957910
vn -0.003672 0.287045 -0.957910
vn 0.733602 -0.524223 -0.432457
vn 0.733602 -0.524223 -0.432457
vn 0.720613 -0.554533 -0.416185
vn 0.000004 -0.999919 -0.012734
vn 0.000013 -0.802045 -0.597264
vn 0.000014 -0.802176 -0.597088
vn 0.000004 -0.999920 -0.012630
vn 0.000000 0.774912 0.632070
vn 0.000000 0.774912 0.632070
vn 0.000000 1.000000 0.000000
vn 0.000000 1.000000 0.000000
vn -0.000000 -0.774912 -0.632070
vn -0.000000 -0.774912 -0.632070
vn 0.000000 -1.000000 -0.000000
vn 0.000000 -1.000000 -0.000000
vn 1.000000 0.000000 0.000000
vn 1.000000 0.000000 0.000000
vn 1.000000 0.000000 0.000000
vn 1.000000 0.000000 0.000000
vn -1.000000 0.000000 0.000000
vn -1.000000 0.000000 0.000000
vn -1.000000 0.000000 0.000000
vn -1.000000 0.000000 0.000000
vn -0.875942 -0.248303 0.413608
vn -0.875942 -0.248303 0.413608
vn -0.875942 -0.248303 0.413608
vn 0.863211 -0.169362 0.475588
vn 0.863211 -0.169362 0.475588
vn 0.863211 -0.169362 0.475588
vn -0.863211 0.169361 -0.475587
vn -0.863211 0.169361 -0.475588
vn -0.863211 0.169361 -0.475588
vn 0.875942 0.069015 -0.477454
vn 0.875942 0.069015 -0.477453
vn 0.875942 0.069015 -0.477454
s 1
g pCube1
usemtl initialShadingGroup
f 1/1/1 3/2/2 19/3/3 21/29/4
s off
f 2/5/5 1/4/6 6/36/7 5/24/8
s 2
f 3/33/9 2/5/10 8/12/11 7/34/12
s 3
f 4/6/13 6/7/14 22/23/15 24/8/16
s 4
f 5/24/17 4/9/18 12/37/19 11/13/20
s 2
f 7/10/12 9/25/21 14/17/22 13/11/23
s 5
f 9/25/24 8/12/25 11/13/26 10/26/27
s 4
f 10/26/28 12/14/19 18/38/29 17/18/30
s 1
f 13/15/31 15/27/32 20/21/33 19/16/3
s off
f 15/27/34 14/17/35 17/18/36 16/28/37
s 3
f 16/28/38 18/19/39 24/20/16 23/22/40
s 6
f 21/29/41 20/21/42 23/22/43 22/23/44
s 5
f 2/5/45 5/24/46 11/13/26 8/12/25
f 9/25/24 10/26/27 17/18/47 14/17/48
s 6
f 15/27/49 16/28/50 23/22/43 20/21/42
f 21/29/41 22/23/44 6/7/51 1/1/52
s off
f 4/9/53 24/30/54 18/31/55 12/37/56
f 19/32/57 3/33/58 7/34/59 13/35/60
f 1/4/61 2/5/62 3/33/63
f 4/9/64 5/24/65 6/36/66
s 2
f 7/34/12 8/12/11 9/25/21
s 4
f 10/26/28 11/13/20 12/37/19
s off
f 13/11/67 14/17/68 15/27/69
f 16/28/70 17/18/71 18/38/72
s 1
f 19/16/3 20/21/33 21/29/4
s 3
f 22/23/15 23/22/40 24/20/16
